<svg width="201" height="201" viewBox="0 0 201 201" fill="none" xmlns="http://www.w3.org/2000/svg">
<path d="M183.334 23.9473H17.666C7.93714 23.9473 0 31.8758 0 41.6133V159.387C0 169.091 7.90181 177.053 17.666 177.053H183.334C193.039 177.053 201 169.151 201 159.387V41.6133C201 31.9088 193.098 23.9473 183.334 23.9473ZM180.895 35.7246L100.875 115.745L20.1624 35.7246H180.895ZM11.7773 156.948V43.9958L68.4966 100.229L11.7773 156.948ZM20.1051 165.275L76.8601 108.52L96.747 128.236C99.049 130.519 102.764 130.511 105.057 128.218L124.447 108.828L180.895 165.275H20.1051ZM189.223 156.948L132.775 100.5L189.223 44.052V156.948Z" fill="white"/>
</svg>
