<svg width="200" height="200" viewBox="0 0 200 200" fill="none" xmlns="http://www.w3.org/2000/svg">
<g clip-path="url(#clip0)">
<path d="M152.053 132.304C145.519 125.853 137.362 125.853 130.87 132.304C125.917 137.215 120.965 142.126 116.095 147.12C114.764 148.493 113.64 148.785 112.017 147.869C108.812 146.121 105.4 144.706 102.32 142.792C87.9615 133.761 75.9339 122.149 65.2797 109.081C59.9942 102.589 55.2913 95.6384 52.0035 87.8142C51.3376 86.2327 51.4625 85.1923 52.7526 83.9021C57.7052 79.116 62.5329 74.2051 67.4022 69.2941C74.1859 62.4688 74.1859 54.4781 67.3606 47.6111C63.4901 43.699 59.6196 39.8701 55.7491 35.958C51.7538 31.9627 47.8001 27.9257 43.7631 23.972C37.2291 17.6045 29.0719 17.6045 22.5795 24.0136C17.5853 28.9246 12.7992 33.9604 7.72182 38.7881C3.01897 43.2412 0.646738 48.6932 0.147321 55.0608C-0.643424 65.4237 1.89528 75.2039 5.47444 84.7345C12.7992 104.461 23.9529 121.983 37.4788 138.047C55.7491 159.772 77.557 176.96 103.069 189.362C114.556 194.939 126.458 199.226 139.402 199.933C148.308 200.433 156.049 198.185 162.25 191.235C166.495 186.491 171.281 182.162 175.776 177.626C182.435 170.884 182.476 162.727 175.859 156.068C167.952 148.119 160.003 140.211 152.053 132.304Z" fill="white"/>
<path d="M144.104 99.1344L159.461 96.5124C157.048 82.4039 150.389 69.6271 140.275 59.4723C129.58 48.7764 116.054 42.0343 101.154 39.9534L98.9903 55.3937C110.519 57.0168 121.006 62.2191 129.288 70.5011C137.113 78.3253 142.232 88.2304 144.104 99.1344Z" fill="white"/>
<path d="M168.118 32.3789C150.389 14.6496 127.957 3.4543 103.194 0L101.03 15.4403C122.421 18.4368 141.815 28.1338 157.131 43.4077C171.656 57.9324 181.186 76.286 184.64 96.4708L199.997 93.8488C195.961 70.4595 184.932 49.2342 168.118 32.3789Z" fill="white"/>
</g>
<defs>
<clipPath id="clip0">
<rect width="200" height="200" fill="white"/>
</clipPath>
</defs>
</svg>
